<svg id="Слой_1" data-name="Слой 1" xmlns="http://www.w3.org/2000/svg" viewBox="0 0 300 300">
  <defs>
    <style>
      .cls-1 {
        fill: #d0d0d0;
      }
    </style>
  </defs>
  <title>logo</title>
  <g id="Шар_1" data-name="Шар 1">
    <rect width="300" height="300" fill="#042B70" />
    <path class="cls-1"
      d="M121.8,202.2q4.8,0,4.8,4.5c0,3.1-1.6,4.7-4.8,4.7h-73c-3.3,0-5-1.6-5-4.7s1.7-4.5,5.1-4.5H65.4V70.4H48.9c-3.4,0-5.1-1.6-5.1-4.7s1.7-4.5,5-4.5h73q4.8,0,4.8,4.5c0,3.1-1.6,4.7-4.8,4.7H106.1V202.3h15.7ZM96.6,70.4H75V202.3H96.6Z"
      transform="translate(-20 10)" />
    <path class="cls-1"
      d="M287.4,60.3c3.2,0,4.8,1.5,4.8,4.6v19c0,3.1-1.6,4.6-4.8,4.6s-4.8-1.5-4.8-4.6V69.5H237.3V202.2h15.6c3.2,0,4.8,1.5,4.8,4.6s-1.6,4.6-4.8,4.6H179.3c-3.2,0-4.8-1.5-4.8-4.6s1.6-4.6,4.8-4.6h16.3V69.5H151.8V82.2c0,3.1-1.6,4.6-4.8,4.6s-4.8-1.5-4.8-4.6V64.9c0-3.1,1.6-4.6,4.8-4.6Zm-82.2,9.2V202.2h22.4V69.5Z"
      transform="translate(-12 10)" />
  </g>
</svg>
