<svg id="Слой_1" data-name="Слой 1" xmlns="http://www.w3.org/2000/svg" viewBox="0 0 248.4 212.89"><defs><style>.cls-1{fill:#fcfcfc;}.cls-2{fill:#fff;stroke:#fff;stroke-miterlimit:10;stroke-width:0.5px;}</style></defs><title>logo</title><g id="Шар_1" data-name="Шар 1"><path class="cls-1" d="M121.8,202.2q4.8,0,4.8,4.5c0,3.1-1.6,4.7-4.8,4.7h-73c-3.3,0-5-1.6-5-4.7s1.7-4.5,5.1-4.5H65.4V70.4H48.9c-3.4,0-5.1-1.6-5.1-4.7s1.7-4.5,5-4.5h73q4.8,0,4.8,4.5c0,3.1-1.6,4.7-4.8,4.7H106.1V202.3h15.7ZM96.6,70.4H75V202.3H96.6Z" transform="translate(-43.8 -60.3)"/><path class="cls-1" d="M287.4,60.3c3.2,0,4.8,1.5,4.8,4.6v19c0,3.1-1.6,4.6-4.8,4.6s-4.8-1.5-4.8-4.6V69.5H237.3V202.2h15.6c3.2,0,4.8,1.5,4.8,4.6s-1.6,4.6-4.8,4.6H179.3c-3.2,0-4.8-1.5-4.8-4.6s1.6-4.6,4.8-4.6h16.3V69.5H151.8V82.2c0,3.1-1.6,4.6-4.8,4.6s-4.8-1.5-4.8-4.6V64.9c0-3.1,1.6-4.6,4.8-4.6Zm-82.2,9.2V202.2h22.4V69.5Z" transform="translate(-43.8 -60.3)"/><path class="cls-2" d="M89.9,270.5V240.6H93v14l10.1-14h4l-11,15,11,15h-4L93,256.6v14H89.9Z" transform="translate(-43.8 -60.3)"/><path class="cls-2" d="M114,270.5V240.6h3.1v13.5h13.6V240.6h3.1v29.9h-3.1V257.1H117.1v13.4Z" transform="translate(-43.8 -60.3)"/><path class="cls-2" d="M146.7,270.5h-3.1V238.7l16.8,23.9v-22h3.1v31.8l-16.8-23.9Z" transform="translate(-43.8 -60.3)"/><path class="cls-2" d="M191.8,268.3c-2,1.8-4.6,2.6-8,2.6a12,12,0,0,1-8-2.6,9.81,9.81,0,0,1-3.2-7.7v-20h3.1v20.5a6.19,6.19,0,0,0,2.4,5.2,9,9,0,0,0,5.7,1.6c3.7,0,6.1-1.2,7.4-3.7a7.45,7.45,0,0,0,.7-3.1V240.6H195v20A9.81,9.81,0,0,1,191.8,268.3Z" transform="translate(-43.8 -60.3)"/><path class="cls-2" d="M204.2,270.5V240.6H222v2.9H207.3v10.7h14.3v2.9H207.3v10.6H222v2.9H204.2Z" transform="translate(-43.8 -60.3)"/></g></svg>