<svg xmlns="http://www.w3.org/2000/svg" width="28" height="28" viewBox="0 0 28 28">
    <g fill="none" fill-rule="evenodd">
        <g fill="#585858" fill-rule="nonzero">
            <g>
                <g>
                    <g>
                        <path d="M14.217 2.545c2.665 0 4.832 2.123 4.832 4.733v3.68h1.613c1.48 0 2.685 1.204 2.685 2.684v9.128c0 1.48-1.205 2.685-2.685 2.685H7.776c-1.48 0-2.685-1.205-2.685-2.685v-9.128c0-1.48 1.204-2.685 2.685-2.685h1.609V7.278c0-2.61 2.168-4.733 4.832-4.733zm6.445 10.202H7.776c-.494 0-.895.402-.895.895v9.128c0 .493.401.895.895.895h12.886c.493 0 .895-.402.895-.895v-9.128c0-.493-.402-.895-.895-.895zm-6.443 2.595c.914 0 1.655.742 1.655 1.656 0 .585-.304 1.099-.762 1.393v1.963c0 .494-.4.895-.895.895-.494 0-.895-.401-.895-.895v-1.965c-.456-.294-.759-.807-.759-1.391 0-.914.741-1.656 1.656-1.656zm-.002-11.007c-1.678 0-3.043 1.32-3.043 2.943v3.68h6.086v-3.68c0-1.623-1.365-2.943-3.043-2.943z" transform="translate(-1092 -392) translate(780 234) translate(0 110) translate(312 48)"/>
                    </g>
                </g>
            </g>
        </g>
    </g>
</svg>
