<svg xmlns="http://www.w3.org/2000/svg" width="31" height="30" viewBox="0 0 31 30">
    <g fill="none" fill-rule="evenodd">
        <g fill="#585858" fill-rule="nonzero">
            <g>
                <g>
                    <g>
                        <path d="M16.604 14.2c1.408.883 2.544 2.147 2.812 3.559L20.034 21c.507 2.665-1.28 4.826-3.992 4.826H4.252C1.54 25.826-.247 23.665.26 21l.618-3.241c.268-1.411 1.403-2.676 2.812-3.558 1.555 2.126 3.87 3.48 6.457 3.48 2.586 0 4.901-1.354 6.457-3.48zM10.146 0c3.593 0 6.506 3.518 6.506 7.858s-2.913 7.858-6.506 7.858c-3.593 0-6.506-3.518-6.506-7.858S6.553 0 10.146 0z" transform="translate(-1500 -33) translate(390) translate(1110.123 33) translate(5 2)"/>
                    </g>
                </g>
            </g>
        </g>
    </g>
</svg>
