<svg xmlns="http://www.w3.org/2000/svg" width="22" height="22" viewBox="0 0 22 22">
    <g fill="none" fill-rule="evenodd">
        <g fill="#FFF" fill-rule="nonzero">
            <g>
                <g>
                    <path d="M12.438 2c.93 0 1.687.757 1.687 1.688v.562h3.094c.775 0 1.406.63 1.406 1.406v1.969c0 .31-.252.563-.563.563h-.307l-.486 10.205c-.043.901-.783 1.607-1.685 1.607H7.04c-.902 0-1.642-.706-1.685-1.607L4.87 8.187h-.308c-.31 0-.562-.251-.562-.562V5.656c0-.775.63-1.406 1.406-1.406H8.5v-.563C8.5 2.757 9.257 2 10.188 2zm4.19 6.188H5.997l.484 10.151c.014.3.26.536.561.536h8.543c.3 0 .547-.235.561-.536l.484-10.151zm-5.316 1.124c.311 0 .563.252.563.563v7.313c0 .31-.252.562-.563.562-.31 0-.562-.252-.562-.563V9.875c0-.31.252-.563.563-.563zm2.813 0c.31 0 .563.252.563.563v7.313c0 .31-.252.562-.563.562-.31 0-.563-.252-.563-.563V9.875c0-.31.252-.563.563-.563zm-5.625 0c.31 0 .563.252.563.563v7.313c0 .31-.252.562-.563.562-.31 0-.563-.252-.563-.563V9.875c0-.31.252-.563.563-.563zm8.719-3.937H5.406c-.155 0-.281.126-.281.281v1.407H17.5V5.655c0-.155-.126-.281-.281-.281zm-4.782-2.25h-2.25c-.31 0-.562.252-.562.563v.562H13v-.563c0-.31-.252-.562-.563-.562z" transform="translate(-1439 -414) translate(1430 405) translate(9 9)"/>
                </g>
            </g>
        </g>
    </g>
</svg>
