<svg xmlns="http://www.w3.org/2000/svg" width="22" height="22" viewBox="0 0 22 22">
    <g fill="none" fill-rule="evenodd">
        <g fill="#FFF" fill-rule="nonzero">
            <g>
                <g>
                    <path d="M19.44 4.19L17.809 2.56c-.746-.745-1.958-.745-2.703 0L2.97 14.695c-.076.077-.127.178-.146.277l-.815 4.405c-.032.17.023.346.145.469.123.122.299.177.47.145l4.403-.815c.102-.02.202-.071.277-.146L19.44 6.893c.747-.747.747-1.956 0-2.703zM3.186 18.814l.493-2.664 2.17 2.171-2.663.493zm3.745-.903L4.09 15.068 14.467 4.69l2.843 2.843L6.93 17.912zM18.694 6.148l-.638.638-2.843-2.843.638-.638c.334-.334.878-.334 1.212 0l1.63 1.631c.336.335.336.877 0 1.212z" transform="translate(-1499 -414) translate(1490 405) translate(9 9)"/>
                </g>
            </g>
        </g>
    </g>
</svg>
